<svg width="60" height="60" viewBox="0 0 60 60" fill="none" xmlns="http://www.w3.org/2000/svg">
<path d="M59.899 17.6501C59.8985 16.6438 59.6564 15.7547 59.1668 14.9916C58.6859 14.2411 57.9656 13.6122 56.9995 13.1149C49.0249 9.02759 41.0426 4.9528 33.0705 0.861342C30.9213 -0.241575 28.8375 -0.201366 26.7042 0.917384C23.5301 2.58134 7.63828 10.6745 2.90273 13.1126C0.9525 14.1161 0.00351562 15.652 0.00304687 17.6482C0 25.868 0.00304687 34.0876 0 42.3076C0.00046875 43.2918 0.232266 44.1636 0.700312 44.9153C1.18148 45.6884 1.9118 46.3347 2.90016 46.8432C7.63594 49.2814 23.5298 57.3739 26.7033 59.0382C28.8375 60.1576 30.9213 60.1976 33.0712 59.0943C41.0435 55.0026 49.0263 50.928 57.0021 46.8407C57.9905 46.3324 58.7208 45.6857 59.2019 44.9132C59.6693 44.1616 59.9016 43.2897 59.902 42.3053C59.902 42.3053 59.902 25.8701 59.899 17.6501Z" fill="#5C8DBC"/>
<path d="M30.0427 29.8976L0.700302 44.9151C1.18147 45.6883 1.91179 46.3345 2.90015 46.8431C7.63593 49.2812 23.5298 57.3737 26.7033 59.0381C28.8375 60.1574 30.9213 60.1974 33.0712 59.0941C41.0435 55.0024 49.0263 50.9279 57.0021 46.8406C57.9905 46.3322 58.7208 45.6856 59.202 44.9131L30.0427 29.8976Z" fill="#1A4674"/>
<path d="M21.3518 34.346C23.0592 36.9956 26.269 38.7826 29.951 38.7826C33.6558 38.7826 36.8838 36.9729 38.5826 34.2949L30.0427 29.8976L21.3518 34.346Z" fill="#1A4674"/>
<path d="M59.899 17.65C59.8985 16.6437 59.6564 15.7546 59.1668 14.9915L30.0427 29.8977L59.202 44.9131C59.6693 44.1615 59.9016 43.2896 59.902 42.3052C59.902 42.3052 59.902 25.87 59.899 17.65Z" fill="#1B598E"/>
<path d="M58.2956 30.971H56.017V32.9968H53.738V30.971H51.4596V28.9458H53.738V26.9203H56.017V28.9458H58.2956V30.971Z" fill="white"/>
<path d="M49.9812 30.971H47.7028V32.9968H45.4242V30.971H43.1456V28.9458H45.4242V26.9203H47.7028V28.9458H49.9812V30.971Z" fill="white"/>
<path d="M38.5826 34.295C36.8838 36.9729 33.6558 38.7827 29.951 38.7827C26.269 38.7827 23.0592 36.9956 21.3518 34.346C20.4941 33.0165 20.0436 31.5103 20.0454 29.9777C20.0454 25.115 24.4805 21.1729 29.951 21.1729C33.6094 21.1729 36.8023 22.9377 38.5181 25.5602L47.1762 21.1285C43.7348 15.8481 37.3099 12.2956 29.951 12.2956C18.9644 12.2956 10.0584 20.2123 10.0584 29.9777C10.0584 33.1814 11.0173 36.1858 12.693 38.7773C16.1257 44.0856 22.5689 47.66 29.951 47.66C37.3467 47.66 43.8 44.0712 47.2277 38.7473L38.5826 34.295Z" fill="white"/>
</svg>
