<svg width="45" height="45" viewBox="0 0 45 45" fill="none" xmlns="http://www.w3.org/2000/svg">
<path d="M5 7.5H40C40.663 7.5 41.2989 7.76339 41.7678 8.23223C42.2366 8.70107 42.5 9.33696 42.5 10V35C42.5 35.663 42.2366 36.2989 41.7678 36.7678C41.2989 37.2366 40.663 37.5 40 37.5H5C4.33696 37.5 3.70107 37.2366 3.23223 36.7678C2.76339 36.2989 2.5 35.663 2.5 35V10C2.5 9.33696 2.76339 8.70107 3.23223 8.23223C3.70107 7.76339 4.33696 7.5 5 7.5ZM6.925 35H37.925L29.175 25.95L30.975 24.2125L40 33.55V11.9L24.4625 27.3625C23.9941 27.8281 23.3605 28.0895 22.7 28.0895C22.0395 28.0895 21.4059 27.8281 20.9375 27.3625L5 11.5125V33.3875L14.2 24.1875L15.9625 25.95L6.925 35ZM38.3625 10H7.025L22.7 25.5875L38.3625 10Z" fill="#2E75FF"/>
</svg>
