<svg width="45" height="45" viewBox="0 0 45 45" fill="none" xmlns="http://www.w3.org/2000/svg">
<path d="M21.2997 17.6133V12.0234L11.8979 18.2812L16.0965 21.0837L21.2997 17.6133ZM34.0614 24.529V20.5212L31.058 22.5251L34.0614 24.529ZM22.5 0C10.0748 0 0 10.0748 0 22.5C0 34.9252 10.0748 45 22.5 45C34.9252 45 45 34.9252 45 22.5C45 10.0748 34.9252 0 22.5 0ZM36.4621 26.769C36.4621 26.8242 36.457 26.8744 36.452 26.9247C36.452 26.9448 36.447 26.9598 36.442 26.9749C36.4349 27.0298 36.4214 27.0838 36.4018 27.1356C36.3917 27.1657 36.3817 27.1959 36.3717 27.221C36.3616 27.2411 36.3516 27.2612 36.3465 27.2812C36.3315 27.3064 36.3214 27.3365 36.3064 27.3616C36.2963 27.3817 36.2863 27.3968 36.2712 27.4169C36.2561 27.442 36.236 27.4671 36.221 27.4922C36.2059 27.5123 36.1959 27.5273 36.1808 27.5424C36.1607 27.5625 36.1406 27.5876 36.1205 27.6077C36.1055 27.6228 36.0904 27.6378 36.0703 27.6529C36.0502 27.673 36.0251 27.6931 36 27.7081C35.9799 27.7232 35.9648 27.7383 35.9448 27.7483C35.9397 27.7533 35.9297 27.7584 35.9247 27.7634L23.1629 36.2612C22.9621 36.3968 22.731 36.4621 22.5 36.4621C22.264 36.4621 22.0329 36.3917 21.832 36.2612L9.07031 27.7684C9.06529 27.7634 9.05525 27.7584 9.05022 27.7533L8.99498 27.7132C8.96987 27.6931 8.94978 27.678 8.92969 27.6579C8.91462 27.6429 8.89955 27.6278 8.87946 27.6127C8.85937 27.5926 8.83929 27.5725 8.8192 27.5474C8.8043 27.532 8.79085 27.5151 8.77902 27.4972C8.75893 27.4721 8.74386 27.447 8.72879 27.4219C8.71875 27.4018 8.70368 27.3867 8.69364 27.3666C8.67857 27.3415 8.6635 27.3114 8.65346 27.2863C8.64342 27.2662 8.63337 27.2461 8.62835 27.226C8.6183 27.1959 8.60826 27.1657 8.59821 27.1406C8.59319 27.1205 8.58315 27.1004 8.57812 27.0804C8.56808 27.0452 8.56306 27.0151 8.55804 26.9799C8.55301 26.9648 8.55301 26.9448 8.54799 26.9297C8.54297 26.8795 8.53795 26.8242 8.53795 26.774V18.2762C8.53795 18.226 8.54297 18.1708 8.54799 18.1205C8.55301 18.1055 8.55301 18.0854 8.55804 18.0703C8.56512 18.0154 8.57861 17.9614 8.59821 17.9096C8.60826 17.8795 8.6183 17.8493 8.62835 17.8242C8.63839 17.8041 8.64844 17.784 8.65346 17.764C8.6635 17.7388 8.67857 17.7087 8.69364 17.6836C8.70368 17.6635 8.71373 17.6484 8.72879 17.6283C8.75893 17.5831 8.78906 17.543 8.8192 17.5028C8.83929 17.4827 8.85937 17.4576 8.87946 17.4375C8.89453 17.4224 8.9096 17.4074 8.92969 17.3923C8.94978 17.3722 8.97489 17.3521 8.99498 17.3371C9.01507 17.322 9.03013 17.3069 9.05022 17.2969C9.05525 17.2919 9.06529 17.2868 9.07031 17.2818L21.832 8.78906C22.2338 8.52288 22.7612 8.52288 23.1629 8.78906L35.9247 17.2818C35.9297 17.2868 35.9397 17.2919 35.9448 17.2969L36 17.3371L36.0703 17.3923C36.0854 17.4074 36.1004 17.4224 36.1205 17.4375C36.1406 17.4576 36.1607 17.4777 36.1808 17.5028C36.216 17.543 36.2461 17.5831 36.2712 17.6283C36.2812 17.6484 36.2963 17.6635 36.3064 17.6836C36.3214 17.7087 36.3365 17.7338 36.3465 17.764C36.3566 17.784 36.3666 17.8041 36.3717 17.8242C36.3817 17.8544 36.3917 17.8845 36.4018 17.9096C36.4068 17.9297 36.4169 17.9498 36.4219 17.9699C36.4319 18.005 36.4369 18.0352 36.442 18.0703C36.447 18.0854 36.447 18.1055 36.452 18.1205C36.457 18.1708 36.4621 18.226 36.4621 18.2762V26.769V26.769ZM23.7003 27.4369V33.0268L33.1021 26.769L28.9035 23.9665L23.7003 27.4369ZM10.9386 20.5212V24.529L13.942 22.5251L10.9386 20.5212ZM22.5 19.6925L18.2561 22.5251L22.5 25.3577L26.7439 22.5251L22.5 19.6925ZM33.1021 18.2812L23.7003 12.0234V17.6133L28.9035 21.0837L33.1021 18.2812ZM16.0965 23.9665L11.8979 26.769L21.2997 33.0268V27.4369L16.0965 23.9665V23.9665Z" fill="#2E75FF"/>
</svg>
