<svg width="270" height="270" viewBox="0 0 270 270" fill="none" xmlns="http://www.w3.org/2000/svg">
<g clip-path="url(#clip0)">
<path d="M135 270C209.558 270 270 209.558 270 135C270 60.4416 209.558 0 135 0C60.4416 0 0 60.4416 0 135C0 209.558 60.4416 270 135 270Z" fill="#33495F"/>
<path opacity="0.2" d="M83.7 52.65C90.585 51.435 94.6377 47.385 95.85 40.5C97.065 47.385 101.118 51.435 108 52.65C101.118 53.8677 97.065 57.915 95.85 64.8C94.6377 57.915 90.585 53.8677 83.7 52.65Z" fill="white"/>
<path opacity="0.1" d="M191.7 201.15C198.585 199.935 202.638 195.885 203.85 189C205.065 195.885 209.118 199.935 216 201.15C209.118 202.368 205.065 206.415 203.85 213.3C202.638 206.415 198.585 202.368 191.7 201.15ZM29.7 174.15C36.585 172.935 40.6377 168.885 41.85 162C43.065 168.885 47.1177 172.935 54 174.15C47.1177 175.368 43.065 179.415 41.85 186.3C40.6377 179.415 36.585 175.368 29.7 174.15Z" fill="white"/>
<path d="M270 0.27C269.579 0.3186 269.684 0.4266 269.73 0C206.777 8.0433 171.075 33.1587 150.835 59.4945C150.12 60.4277 149.416 61.3701 148.724 62.3214L148.702 62.3484C126.94 92.3292 124.435 123.692 124.2 132.3H121.5L118.8 140.4L129.6 151.2L137.7 148.5V145.8C144.109 145.675 150.494 144.977 156.778 143.713L156.784 143.718C158.752 143.227 159.3 143.924 159.3 153.9V178.2C159.3 183.084 161.846 184.942 164.551 182.234C171.094 175.678 172.66 174.072 187.501 159.208C198.733 147.957 200.127 141.402 195.485 129.349C226.673 111.696 260.366 75.2976 270 0.27Z" fill="#E94B35"/>
<path d="M129.6 151.2L118.8 140.4L121.5 132.3H126.9L137.7 143.1V148.5L129.6 151.2ZM140.4 75.6C135.761 73.737 135 72.9 129.6 72.9C124.2 72.9 118.306 76.626 111.075 83.8701C99.5895 95.3694 97.9803 96.9354 88.0821 106.842C84.8475 110.082 89.8101 110.7 97.2 110.7C111.329 110.7 122.302 110.362 126.336 114.534C131.663 120.042 140.4 75.6 140.4 75.6ZM270 0C268.275 13.4271 265.772 25.8633 262.653 36.9306C259.821 31.6116 255.736 25.1478 250.503 19.9962C244.696 14.2722 237.511 10.1898 232.073 7.6167C248.343 2.9457 261.314 1.1124 270 0Z" fill="#C23824"/>
<path opacity="0.3" d="M195.485 129.349C200.127 141.399 199.028 147.676 187.78 158.925C185.501 161.204 166.644 180.144 164.549 182.234C161.841 184.939 159.389 183.084 159.3 178.2V176.44C167.4 168.34 185.46 152.307 189 145.8C191.074 141.99 189.95 135.934 189 132.3C180.058 137.052 157.907 143.354 156.784 143.718C148.246 145.463 141.661 145.646 137.7 145.8V144.029C137.7 144.029 218.633 117.939 270 0C260.296 75.7269 226.673 111.696 195.485 129.349Z" fill="white"/>
<path d="M209.25 75.6C199.573 75.6 191.7 67.7268 191.7 58.05C191.7 48.3732 199.573 40.5 209.25 40.5C218.927 40.5 226.8 48.3732 226.8 58.05C226.8 67.7268 218.927 75.6 209.25 75.6Z" fill="white"/>
<path d="M209.25 43.2C213.188 43.2 216.966 44.7645 219.751 47.5494C222.535 50.3344 224.1 54.1115 224.1 58.05C224.1 61.9884 222.535 65.7656 219.751 68.5505C216.966 71.3354 213.188 72.9 209.25 72.9C205.312 72.9 201.534 71.3354 198.749 68.5505C195.965 65.7656 194.4 61.9884 194.4 58.05C194.4 54.1115 195.965 50.3344 198.749 47.5494C201.534 44.7645 205.312 43.2 209.25 43.2ZM209.25 37.8C198.08 37.8 189 46.8828 189 58.05C189 69.2172 198.08 78.3 209.25 78.3C220.42 78.3 229.5 69.2172 229.5 58.05C229.5 46.8828 220.42 37.8 209.25 37.8Z" fill="#C23824"/>
<path d="M118.8 140.4L129.6 151.2L35.1 248.4L18.9 232.2L118.8 140.4Z" fill="#D7DCDE"/>
<path d="M118.463 140.4L123.863 145.8L20.25 247.05L12.15 238.95L118.463 140.4Z" fill="#F7F7F7"/>
</g>
<defs>
<clipPath id="clip0">
<rect width="270" height="270" fill="white"/>
</clipPath>
</defs>
</svg>
