<svg width="60" height="60" viewBox="0 0 60 60" fill="none" xmlns="http://www.w3.org/2000/svg">
<path d="M11.0662 51.0019L6.85312 3.75H53.1469L48.9281 50.9944L29.9719 56.25L11.0662 51.0019Z" fill="#E44F26"/>
<path d="M30 52.2338L45.3187 47.9869L48.9225 7.61438H30V52.2338Z" fill="#F1662A"/>
<path d="M30 25.1381H22.3312L21.8025 19.2038H30V13.4081H15.4688L15.6075 14.9644L17.0306 30.9338H30V25.1381Z" fill="#EBEBEB"/>
<path d="M30 40.1887L29.9737 40.1962L23.52 38.4543L23.1075 33.8325H17.2894L18.1012 42.93L29.9737 46.2262L30 46.2187V40.1887Z" fill="#EBEBEB"/>
<path d="M29.9794 25.1381V30.9337H37.1156L36.4444 38.4506L29.9794 40.1944V46.2244L41.8613 42.93L41.9475 41.9512L43.3088 26.6944L43.4513 25.1381H29.9794Z" fill="white"/>
<path d="M29.9794 13.4081V19.2038H43.9782L44.0944 17.9025L44.3588 14.9644L44.4975 13.4081H29.9794Z" fill="white"/>
</svg>
