<svg width="60" height="60" viewBox="0 0 60 60" fill="none" xmlns="http://www.w3.org/2000/svg">
<path d="M19.3486 46.3826C19.3486 46.3826 16.2553 47.7135 21.5501 48.1638C27.9647 48.7052 31.2429 48.6277 38.3119 47.6377C38.3119 47.6377 40.1705 48.4999 42.7657 49.2468C26.9194 54.2717 6.9019 48.9556 19.3486 46.3826Z" fill="#5382A1"/>
<path d="M17.4122 39.8253C17.4122 39.8253 13.9427 41.7255 19.2415 42.1309C26.0937 42.6539 31.5049 42.6967 40.8687 41.3627C40.8687 41.3627 42.1638 42.3341 44.2003 42.8655C25.0409 47.0107 3.70077 43.1924 17.4122 39.8253Z" fill="#5382A1"/>
<path d="M33.7364 28.702C37.6411 32.028 32.7105 35.0211 32.7105 35.0211C32.7105 35.0211 42.6248 31.2343 38.0716 26.4922C33.8191 22.0702 30.5578 19.8728 48.2126 12.2972C48.2126 12.2972 20.5006 17.418 33.7364 28.7018" fill="#E76F00"/>
<path d="M54.6947 51.2327C54.6947 51.2327 56.9838 52.6281 52.1735 53.7078C43.0268 55.758 14.1035 56.3771 6.06869 53.7895C3.18048 52.86 8.59689 51.5698 10.3006 51.299C12.0774 51.0139 13.0929 51.0671 13.0929 51.0671C9.8808 49.3928 -7.66873 54.3544 4.17869 55.7752C36.488 59.652 63.0752 54.0296 54.6947 51.2327Z" fill="#5382A1"/>
<path d="M20.836 33.0312C20.836 33.0312 6.124 35.6167 15.6263 36.5554C19.6383 36.9529 27.6363 36.863 35.0864 36.4011C41.175 36.0213 47.2887 35.2132 47.2887 35.2132C47.2887 35.2132 45.1418 35.8935 43.5886 36.6782C28.6486 39.5854 -0.2128 38.233 8.09603 35.2592C15.1228 32.7461 20.8362 33.0312 20.8362 33.0312" fill="#5382A1"/>
<path d="M47.228 43.946C62.4155 38.1069 55.3934 32.4957 50.4921 33.2518C49.2907 33.4366 48.7552 33.5969 48.7552 33.5969C48.7552 33.5969 49.2012 33.0801 50.0529 32.8564C59.749 30.3341 67.2061 40.2952 46.9228 44.2403C46.9228 44.2404 47.1579 44.0851 47.228 43.946Z" fill="#5382A1"/>
<path d="M38.0716 0.0643214C38.0716 0.0643214 46.4827 6.28975 30.0942 15.8622C16.9526 23.5411 27.0975 27.9194 30.0888 32.9218C22.4177 27.801 16.7881 23.293 20.565 19.0975C26.1082 12.9385 41.4652 9.95253 38.0716 0.0641479" fill="#E76F00"/>
<path d="M22.3284 59.7685C36.9063 60.459 59.2922 59.3854 59.8224 54.2818C59.8224 54.2818 58.8033 56.2167 47.7745 57.7531C35.332 59.4855 19.9861 59.2833 10.8841 58.1729C10.8844 58.1729 12.7474 59.314 22.3287 59.7685" fill="#5382A1"/>
</svg>
