<svg width="45" height="45" viewBox="0 0 45 45" fill="none" xmlns="http://www.w3.org/2000/svg">
<path d="M12.1725 4.21875C11.437 4.21875 10.7114 4.48312 10.1067 4.96547L10.0195 5.00906L9.97594 5.05406L5.58141 9.58078L5.62501 9.62297C4.9802 10.2085 4.52334 10.9719 4.3121 11.8169C4.10086 12.6618 4.14472 13.5504 4.43813 14.3705C4.44376 14.3817 4.43251 14.4028 4.43813 14.4141C5.63063 17.8256 8.67938 24.4125 14.6334 30.3666C20.61 36.3431 27.2841 39.2709 30.5859 40.5619H30.6295C31.457 40.8354 32.3412 40.89 33.1961 40.7205C34.0509 40.551 34.8474 40.163 35.5078 39.5944L39.9459 35.1562C41.1103 33.9919 41.1103 31.9697 39.9459 30.8053L34.2338 25.0931L34.1888 25.0045C33.0244 23.8402 30.96 23.8402 29.7942 25.0045L26.9817 27.817C24.871 26.803 22.9296 25.4692 21.2259 23.8627C18.9239 21.6647 17.7483 19.1377 17.3152 18.1491L20.1277 15.3366C21.3089 14.1553 21.33 12.1894 20.0827 11.0306L20.1263 10.9856L19.9955 10.8548L14.3705 5.05406L14.3269 5.01047L14.2383 4.96547C13.6546 4.48889 12.926 4.2255 12.1725 4.21875ZM12.1725 7.03125C12.2875 7.03793 12.3964 7.08471 12.4805 7.16344L18.1055 12.9192L18.2377 13.0514C18.2264 13.0402 18.3192 13.1892 18.1491 13.3594L14.6334 16.875L13.9739 17.4909L14.2833 18.3684C14.2833 18.3684 15.8977 22.6927 19.2924 25.9284L19.6003 26.1914C22.867 29.1741 26.7188 30.8053 26.7188 30.8053L27.5977 31.2019L31.7728 27.0253C32.0147 26.7848 31.9697 26.7848 32.2116 27.0253L37.9688 32.7853C38.2106 33.0258 38.2106 32.9386 37.9688 33.1791L33.6614 37.4864C33.0145 38.0419 32.3269 38.1572 31.5099 37.883C28.3233 36.63 22.1316 33.9103 16.6106 28.3908C11.0461 22.8248 8.14079 16.5136 7.07626 13.4494C6.8611 12.877 7.01438 12.0319 7.51501 11.603L7.60219 11.5144L11.8659 7.16484C11.949 7.0862 12.0569 7.03896 12.1711 7.03125H12.1725Z" fill="#00A3FF"/>
</svg>
