<svg width="60" height="60" viewBox="0 0 60 60" fill="none" xmlns="http://www.w3.org/2000/svg">
<g clip-path="url(#clip0)">
<path fill-rule="evenodd" clip-rule="evenodd" d="M7.4325 19.0237L11.2762 57.5212C11.2762 58.8937 12.4275 59.9999 13.8412 59.9999H42.2662C42.935 60.011 43.5807 59.7561 44.0617 59.2913C44.5426 58.8266 44.8194 58.1899 44.8312 57.5212L48.675 19.0237H7.4325ZM30.1237 52.7549H26.1037V26.2087H30.1237V52.7549ZM37.6237 52.7549H33.6037L37.3537 26.2087H41.3737L37.6237 52.7549ZM22.6237 52.7549H18.6037L14.8537 26.2087H18.8737L22.6237 52.7549Z" fill="#6B6B6B"/>
<path fill-rule="evenodd" clip-rule="evenodd" d="M49.0313 7.89375H37.2638V2.65875C37.2638 1.18875 35.5538 0 34.0538 0H22.4475C20.9475 0 18.8663 0.84375 18.8663 2.30625V7.54125L7.0725 7.89375C6.71909 7.88879 6.36817 7.95356 6.03981 8.08436C5.71146 8.21515 5.41211 8.4094 5.1589 8.656C4.90569 8.90259 4.70358 9.19669 4.56414 9.52147C4.42469 9.84625 4.35065 10.1953 4.34625 10.5487V14.88H51.75V10.5487C51.7466 10.1957 51.6735 9.84676 51.5348 9.52203C51.3962 9.1973 51.1948 8.90314 50.9422 8.65645C50.6896 8.40976 50.3907 8.21539 50.0628 8.08451C49.7349 7.95362 49.3843 7.8888 49.0313 7.89375ZM22.3013 5.4C22.3013 4.23 23.6175 3.28125 25.2375 3.28125H31.1025C32.7225 3.28125 34.035 4.23375 34.035 5.4V7.89375H22.2975V5.4H22.3013Z" fill="#6B6B6B"/>
</g>
<defs>
<clipPath id="clip0">
<rect width="60" height="60" fill="white"/>
</clipPath>
</defs>
</svg>
