<svg width="60" height="60" viewBox="0 0 60 60" fill="none" xmlns="http://www.w3.org/2000/svg">
<path d="M30 59.8891C29.0684 59.8891 28.1988 59.669 27.3914 59.2839L19.1304 54.9374C17.8882 54.3322 18.5093 54.1121 18.882 54.0021C20.5589 53.5069 20.8695 53.3969 22.6085 52.5164C22.7951 52.4063 23.0435 52.4614 23.2296 52.5714L29.5652 55.9277C29.8137 56.0377 30.1242 56.0377 30.3105 55.9277L55.0934 43.2182C55.3418 43.1082 55.466 42.8881 55.466 42.6131V17.2488C55.466 16.9737 55.3418 16.7537 55.0934 16.6436L30.3105 3.98904C30.0621 3.879 29.7516 3.879 29.5652 3.98904L4.78242 16.6438C4.53398 16.7539 4.40977 17.029 4.40977 17.249V42.6131C4.40977 42.8331 4.53398 43.1082 4.78242 43.2182L11.5528 46.6843C15.2175 48.3349 17.5153 46.4092 17.5153 44.4836V19.4495C17.5153 19.1194 17.8261 18.7893 18.2609 18.7893H21.4287C21.8013 18.7893 22.174 19.0644 22.174 19.4495V44.4834C22.174 48.83 19.503 51.3608 14.8446 51.3608C13.4161 51.3608 12.2981 51.3608 9.13055 49.9854L2.60859 46.6843C0.99375 45.8589 0 44.3184 0 42.6679V17.3041C0 15.6535 0.99375 14.1131 2.60859 13.2876L27.3914 0.57817C28.9441 -0.192072 31.0559 -0.192072 32.6086 0.57817L57.3914 13.2876C59.0062 14.1128 60 15.6533 60 17.3041V42.6681C60 44.3186 59.0062 45.8591 57.3914 46.6843L32.6086 59.3942C31.8012 59.7243 30.8695 59.8893 30 59.8893V59.8891ZM37.6397 42.4478C26.7701 42.4478 24.5341 38.0464 24.5341 34.305C24.5341 33.9749 24.8447 33.6448 25.2795 33.6448H28.5091C28.8818 33.6448 29.1926 33.8649 29.1926 34.195C29.6895 37.1109 31.118 38.5416 37.7018 38.5416C42.9192 38.5416 45.1554 37.4962 45.1554 35.0205C45.1554 33.5898 44.5343 32.5445 36.3975 31.829C29.6273 31.2238 25.4037 29.9034 25.4037 25.1169C25.4037 20.6601 29.6271 18.0193 36.708 18.0193C44.6583 18.0193 48.5714 20.44 49.0683 25.7219C49.0683 25.887 49.0062 26.052 48.882 26.2171C48.7577 26.3271 48.5714 26.4371 48.3851 26.4371H45.1554C44.8446 26.4371 44.5343 26.2171 44.472 25.942C43.7266 22.916 41.8013 21.9257 36.708 21.9257C30.994 21.9257 30.3105 23.6863 30.3105 25.0067C30.3105 26.6024 31.118 27.0973 38.8198 27.9776C46.4597 28.8579 50.062 30.1235 50.062 34.8552C49.9999 39.6969 45.528 42.4478 37.6397 42.4478Z" fill="#539E43"/>
</svg>
