<svg width="60" height="60" viewBox="0 0 60 60" fill="none" xmlns="http://www.w3.org/2000/svg">
<path d="M41.0125 13.7525C40.725 13.7525 40.53 13.7875 40.3275 13.835V13.8675H40.3625C40.4975 14.1275 40.7275 14.3175 40.8975 14.55C41.0325 14.8175 41.1475 15.085 41.2825 15.35L41.3175 15.3125C41.5525 15.1475 41.6675 14.8825 41.6675 14.48C41.5675 14.3625 41.5525 14.245 41.4675 14.13C41.3675 13.9625 41.1525 13.88 41.0175 13.7475L41.0125 13.7525ZM14.425 46.7375H12.1075C12.0423 43.0545 11.8171 39.376 11.4325 35.7125H11.4125L7.8875 46.7375H6.125L2.625 35.7125H2.6C2.32623 39.3818 2.16366 43.0584 2.1125 46.7375H0C0.1375 41.8225 0.48 37.2125 1.025 32.9125H3.9L7.2375 43.0725H7.2575L10.625 32.9125H13.3625C13.9675 37.95 14.3225 42.5625 14.4325 46.7375H14.425ZM24.4675 36.5375C23.5225 41.65 22.2775 45.37 20.7375 47.6875C19.5325 49.4775 18.2125 50.37 16.78 50.37C16.3975 50.37 15.93 50.255 15.365 50.025V48.79C15.64 48.8325 15.965 48.855 16.33 48.855C17 48.855 17.5375 48.6675 17.9475 48.3C18.44 47.85 18.685 47.345 18.685 46.7875C18.685 46.4 18.4925 45.6125 18.11 44.4275L15.575 36.5375H17.85L19.6675 42.4375C20.0775 43.7775 20.25 44.7125 20.18 45.245C21.18 42.585 21.875 39.6775 22.2675 36.5375H24.4675ZM55.28 46.7375H48.705V32.9125H50.9175V45.0375H55.28V46.7375ZM46.98 47.075L44.44 45.825C44.665 45.635 44.8825 45.43 45.0775 45.2C46.16 43.935 46.6975 42.055 46.6975 39.5675C46.6975 34.9925 44.9025 32.7025 41.31 32.7025C39.55 32.7025 38.175 33.2825 37.185 34.445C36.11 35.715 35.57 37.585 35.57 40.0575C35.57 42.4875 36.045 44.2725 37.005 45.4075C37.88 46.4325 39.1975 46.945 40.9625 46.945C41.6225 46.945 42.2275 46.8625 42.775 46.7L46.0875 48.63L46.9875 47.075H46.98ZM38.75 43.97C38.1875 43.07 37.9075 41.62 37.9075 39.63C37.9075 36.1475 38.9675 34.405 41.0825 34.405C42.19 34.405 43.0075 34.8225 43.525 35.655C44.085 36.56 44.365 37.995 44.365 39.9625C44.365 43.4725 43.305 45.2325 41.19 45.2325C40.0775 45.2325 39.265 44.815 38.745 43.9825L38.75 43.97ZM34.605 42.9075C34.605 44.0825 34.175 45.0475 33.315 45.7975C32.455 46.5475 31.3075 46.9225 29.855 46.9225C28.4975 46.9225 27.195 46.4925 25.9225 45.635L26.515 44.445C27.61 44.995 28.5975 45.265 29.49 45.265C30.32 45.265 30.9725 45.0825 31.4475 44.715C31.6849 44.536 31.8766 44.3035 32.007 44.0362C32.1373 43.769 32.2026 43.4748 32.1975 43.1775C32.1975 42.3525 31.6225 41.6525 30.5775 41.065C29.6075 40.5325 27.67 39.4225 27.67 39.4225C26.615 38.655 26.09 37.8325 26.09 36.48C26.09 35.355 26.4825 34.455 27.265 33.7675C28.0525 33.0725 29.065 32.73 30.315 32.73C31.595 32.73 32.765 33.07 33.815 33.755L33.2825 34.945C32.4435 34.5765 31.5388 34.3809 30.6225 34.37C29.915 34.37 29.3675 34.54 28.9875 34.885C28.7947 35.0448 28.6392 35.2449 28.5321 35.4712C28.425 35.6975 28.3688 35.9446 28.3675 36.195C28.3675 37.015 28.9525 37.72 30.0325 38.32C31.015 38.8575 33 39.995 33 39.995C34.0825 40.7575 34.62 41.57 34.62 42.915L34.605 42.9075ZM58.06 28.2775C56.7225 28.2425 55.685 28.3775 54.8175 28.7475C54.5675 28.8475 54.1675 28.8475 54.1325 29.165C54.27 29.2975 54.29 29.515 54.4075 29.7C54.6075 30.035 54.9525 30.4825 55.2725 30.7175C55.6225 30.9925 55.9725 31.2575 56.34 31.4925C56.99 31.8925 57.7275 32.13 58.365 32.5325C58.7275 32.7675 59.0975 33.065 59.465 33.315C59.6475 33.44 59.765 33.665 60 33.745V33.695C59.885 33.545 59.85 33.3275 59.7375 33.16C59.57 32.9925 59.4025 32.8425 59.2375 32.6775C58.7467 32.0307 58.1609 31.4618 57.5 30.99C56.965 30.625 55.795 30.115 55.575 29.5025L55.5425 29.4675C55.9075 29.435 56.3425 29.3025 56.6925 29.2025C57.26 29.0525 57.78 29.085 58.3675 28.9375C58.6325 28.87 58.9 28.7875 59.1675 28.7025V28.5525C58.8675 28.2525 58.6425 27.845 58.3325 27.565C57.4672 26.8087 56.5444 26.1208 55.5725 25.5075C55.0475 25.1725 54.3825 24.9575 53.83 24.6725C53.63 24.5725 53.295 24.5225 53.18 24.355C52.88 23.99 52.705 23.505 52.4925 23.07C52.0016 22.1177 51.5455 21.1479 51.125 20.1625C50.825 19.5075 50.6425 18.855 50.275 18.255C48.55 15.4125 46.6825 13.69 43.81 12.005C43.1925 11.655 42.4525 11.505 41.67 11.32C41.2525 11.3 40.835 11.27 40.42 11.2525C40.145 11.135 39.88 10.8175 39.645 10.665C38.695 10.065 36.235 8.76501 35.535 10.485C35.085 11.57 36.2025 12.64 36.59 13.19C36.8775 13.5725 37.24 14.01 37.44 14.44C37.5575 14.73 37.59 15.0275 37.7075 15.33C37.9725 16.065 38.225 16.885 38.575 17.5725C38.7575 17.9225 38.9575 18.29 39.1925 18.605C39.3275 18.7875 39.5575 18.8725 39.61 19.1725C39.375 19.5125 39.36 20.0075 39.225 20.4225C38.625 22.315 38.86 24.655 39.71 26.0475C39.9775 26.4625 40.615 27.3825 41.4675 27.03C42.2175 26.73 42.0525 25.78 42.2675 24.9425C42.3175 24.7425 42.285 24.61 42.3875 24.475V24.5125C42.6225 24.9825 42.8575 25.43 43.0725 25.9C43.5875 26.72 44.4875 27.57 45.24 28.1375C45.64 28.4375 45.9575 28.9575 46.4575 29.1425V29.0925H46.42C46.3125 28.9475 46.17 28.8775 46.035 28.76C45.718 28.4497 45.4255 28.1154 45.16 27.76C44.4556 26.7976 43.831 25.7792 43.2925 24.715C43.0175 24.19 42.7875 23.625 42.5675 23.1075C42.4675 22.9075 42.4675 22.6075 42.3 22.5075C42.05 22.8725 41.6825 23.19 41.5 23.64C41.1825 24.36 41.15 25.245 41.03 26.165C40.9625 26.1825 40.995 26.165 40.9625 26.2C40.4275 26.07 40.245 25.515 40.045 25.05C39.545 23.8625 39.4625 21.955 39.895 20.5875C40.0125 20.2375 40.5125 19.1325 40.3125 18.7975C40.2075 18.48 39.8775 18.2975 39.695 18.04C39.4602 17.7049 39.2593 17.3473 39.095 16.9725C38.695 16.0375 38.495 15.0025 38.06 14.0675C37.86 13.635 37.51 13.1825 37.225 12.785C36.9075 12.335 36.5575 12.0175 36.305 11.485C36.2225 11.3025 36.105 11 36.2375 10.8C36.2725 10.665 36.3425 10.6125 36.4725 10.575C36.6925 10.395 37.31 10.63 37.5275 10.73C38.145 10.98 38.665 11.215 39.1825 11.565C39.4175 11.73 39.67 12.0475 39.97 12.13H40.32C40.855 12.2475 41.4575 12.165 41.9575 12.3125C42.845 12.5975 43.645 13.0125 44.3625 13.4625C46.5733 14.8748 48.3716 16.8464 49.575 19.1775C49.775 19.5625 49.8625 19.915 50.045 20.315C50.395 21.14 50.8275 21.9725 51.1825 22.77C51.5325 23.5575 51.87 24.36 52.3725 25.0125C52.6225 25.3625 53.6275 25.545 54.0775 25.7275C54.41 25.8775 54.9275 26.015 55.2275 26.1975C55.8025 26.5475 56.3625 26.9475 56.9025 27.3325C57.1775 27.5225 58.01 27.94 58.06 28.2775Z" fill="black"/>
</svg>
