<svg width="41" height="31" viewBox="0 0 41 31" fill="none" xmlns="http://www.w3.org/2000/svg">
<path d="M3 0.5H38C38.663 0.5 39.2989 0.763392 39.7678 1.23223C40.2366 1.70107 40.5 2.33696 40.5 3V28C40.5 28.663 40.2366 29.2989 39.7678 29.7678C39.2989 30.2366 38.663 30.5 38 30.5H3C2.33696 30.5 1.70107 30.2366 1.23223 29.7678C0.76339 29.2989 0.5 28.663 0.5 28V3C0.5 2.33696 0.76339 1.70107 1.23223 1.23223C1.70107 0.763392 2.33696 0.5 3 0.5V0.5ZM4.925 28H35.925L27.175 18.95L28.975 17.2125L38 26.55V4.9L22.4625 20.3625C21.9941 20.8281 21.3605 21.0895 20.7 21.0895C20.0395 21.0895 19.4059 20.8281 18.9375 20.3625L3 4.5125V26.3875L12.2 17.1875L13.9625 18.95L4.925 28ZM36.3625 3H5.025L20.7 18.5875L36.3625 3Z" fill="#49A9DA"/>
</svg>
