<svg width="37" height="37" viewBox="0 0 37 37" fill="none" xmlns="http://www.w3.org/2000/svg">
<path d="M8.17251 0.21875C7.43704 0.21875 6.71141 0.483125 6.10673 0.965469L6.01954 1.00906L5.97594 1.05406L1.58141 5.58078L1.62501 5.62297C0.980204 6.20847 0.52334 6.97189 0.3121 7.81685C0.10086 8.66181 0.144716 9.55042 0.438131 10.3705C0.443756 10.3817 0.432506 10.4028 0.438131 10.4141C1.63063 13.8256 4.67938 20.4125 10.6334 26.3666C16.61 32.3431 23.2841 35.2709 26.5859 36.5619H26.6295C27.457 36.8354 28.3412 36.89 29.1961 36.7205C30.0509 36.551 30.8474 36.163 31.5078 35.5944L35.9459 31.1562C37.1103 29.9919 37.1103 27.9697 35.9459 26.8053L30.2338 21.0931L30.1888 21.0045C29.0244 19.8402 26.96 19.8402 25.7942 21.0045L22.9817 23.817C20.871 22.803 18.9296 21.4692 17.2259 19.8627C14.9239 17.6647 13.7483 15.1377 13.3152 14.1491L16.1277 11.3366C17.3089 10.1553 17.33 8.18937 16.0827 7.03062L16.1263 6.98562L15.9955 6.85484L10.3705 1.05406L10.3269 1.01047L10.2383 0.965469C9.65464 0.488894 8.92598 0.225505 8.17251 0.21875V0.21875ZM8.17251 3.03125C8.28747 3.03793 8.39644 3.08471 8.48048 3.16344L14.1055 8.91922L14.2377 9.05141C14.2264 9.04016 14.3192 9.18922 14.1491 9.35938L10.6334 12.875L9.97391 13.4909L10.2833 14.3684C10.2833 14.3684 11.8977 18.6927 15.2924 21.9284L15.6003 22.1914C18.867 25.1741 22.7188 26.8053 22.7188 26.8053L23.5977 27.2019L27.7728 23.0253C28.0147 22.7848 27.9697 22.7848 28.2116 23.0253L33.9688 28.7853C34.2106 29.0258 34.2106 28.9386 33.9688 29.1791L29.6614 33.4864C29.0145 34.0419 28.3269 34.1572 27.5099 33.883C24.3233 32.63 18.1316 29.9103 12.6106 24.3908C7.0461 18.8248 4.14079 12.5136 3.07626 9.44938C2.8611 8.87703 3.01438 8.03188 3.51501 7.60297L3.60219 7.51437L7.86594 3.16484C7.94904 3.0862 8.05695 3.03896 8.1711 3.03125H8.17251Z" fill="#49A9DA"/>
</svg>
