<svg width="45" height="43" viewBox="0 0 45 43" fill="none" xmlns="http://www.w3.org/2000/svg">
<path fill-rule="evenodd" clip-rule="evenodd" d="M32.6531 25.7678C32.0944 25.5008 29.355 24.2144 28.845 24.0352C28.335 23.8579 27.9637 23.7701 27.5906 24.304C27.2194 24.8343 26.1525 26.0347 25.8281 26.3895C25.5019 26.746 25.1775 26.789 24.6206 26.5239C24.0637 26.2551 22.2675 25.6943 20.1394 23.8812C18.4837 22.4693 17.3644 20.726 17.04 20.1921C16.7156 19.66 17.0044 19.3715 17.2837 19.1064C17.535 18.8681 17.8406 18.4847 18.12 18.1747C18.3994 17.8629 18.4912 17.6408 18.6769 17.2842C18.8644 16.9295 18.7706 16.6195 18.63 16.3526C18.4912 16.0856 17.3775 13.4644 16.9125 12.3984C16.4606 11.361 16.0012 11.5025 15.66 11.4846C15.3337 11.4703 14.9625 11.4667 14.5912 11.4667C14.22 11.4667 13.6162 11.5993 13.1062 12.1332C12.5944 12.6653 11.1562 13.9535 11.1562 16.5747C11.1562 19.1942 13.1512 21.7258 13.4306 22.0823C13.71 22.4371 17.3587 27.8157 22.9481 30.1215C24.2794 30.6698 25.3162 30.9977 26.1244 31.2413C27.4594 31.648 28.6744 31.5907 29.6344 31.4527C30.7031 31.3004 32.9306 30.1645 33.3956 28.9211C33.8587 27.6777 33.8587 26.6117 33.72 26.3895C33.5812 26.1673 33.21 26.0347 32.6512 25.7678H32.6531ZM22.4869 39.0315H22.4794C19.1596 39.0321 15.9007 38.1793 13.0444 36.5626L12.3694 36.1792L5.35312 37.9386L7.22625 31.4026L6.78562 30.7325C4.92963 27.9094 3.94743 24.6422 3.9525 21.3083C3.95625 11.5437 12.27 3.59949 22.4944 3.59949C27.4444 3.59949 32.0981 5.44491 35.5969 8.79174C37.3226 10.4339 38.6904 12.3868 39.6211 14.5374C40.5519 16.688 41.0271 18.9936 41.0194 21.3209C41.0156 31.0854 32.7019 39.0315 22.4869 39.0315V39.0315ZM38.2594 6.24936C36.1935 4.26227 33.7354 2.6867 31.0277 1.61397C28.3199 0.541229 25.4163 -0.00734524 22.485 3.14564e-05C10.1962 3.14564e-05 0.19125 9.55857 0.1875 21.3065C0.185625 25.0619 1.21125 28.7276 3.16312 31.958L0 43L11.82 40.0366C15.0898 41.7389 18.7539 42.6309 22.4775 42.6309H22.4869C34.7756 42.6309 44.7806 33.0724 44.7844 21.3227C44.7934 18.5228 44.2214 15.749 43.1014 13.1617C41.9814 10.5744 40.3357 8.22498 38.2594 6.24936" fill="#2E75FF"/>
</svg>
